<?xml version="1.0" encoding="UTF-8"?>
<!DOCTYPE svg PUBLIC "-//W3C//DTD SVG 1.1//EN" "http://www.w3.org/Graphics/SVG/1.1/DTD/svg11.dtd">
<svg xmlns="http://www.w3.org/2000/svg" version="1.1" width="500px" height="500px" style="shape-rendering:geometricPrecision; text-rendering:geometricPrecision; image-rendering:optimizeQuality; fill-rule:evenodd; clip-rule:evenodd" xmlns:xlink="http://www.w3.org/1999/xlink">
<g><path style="opacity:0.004" fill="#000000" d="M 365.5,3.5 C 366.833,4.16667 366.833,4.16667 365.5,3.5 Z"/></g>
<g><path style="opacity:0.004" fill="#000000" d="M 420.5,11.5 C 421.833,12.1667 421.833,12.1667 420.5,11.5 Z"/></g>
<g><path style="opacity:0.004" fill="#000000" d="M 50.5,17.5 C 51.8333,18.1667 51.8333,18.1667 50.5,17.5 Z"/></g>
<g><path style="opacity:0.004" fill="#000000" d="M 32.5,34.5 C 33.8333,35.1667 33.8333,35.1667 32.5,34.5 Z"/></g>
<g><path style="opacity:0.004" fill="#000000" d="M 332.5,59.5 C 333.833,60.1667 333.833,60.1667 332.5,59.5 Z"/></g>
<g><path style="opacity:0.004" fill="#000000" d="M 240.5,69.5 C 241.833,70.1667 241.833,70.1667 240.5,69.5 Z"/></g>
<g><path style="opacity:0.004" fill="#000000" d="M 66.5,84.5 C 67.8333,85.1667 67.8333,85.1667 66.5,84.5 Z"/></g>
<g><path style="opacity:0.004" fill="#000000" d="M 451.5,87.5 C 452.833,88.1667 452.833,88.1667 451.5,87.5 Z"/></g>
<g><path style="opacity:0.004" fill="#000000" d="M 466.5,87.5 C 467.833,88.1667 467.833,88.1667 466.5,87.5 Z"/></g>
<g><path style="opacity:0.004" fill="#000000" d="M 324.5,98.5 C 325.833,99.1667 325.833,99.1667 324.5,98.5 Z"/></g>
<g><path style="opacity:0.004" fill="#000000" d="M 469.5,99.5 C 470.833,100.167 470.833,100.167 469.5,99.5 Z"/></g>
<g><path style="opacity:0.004" fill="#000000" d="M 238.5,110.5 C 237.833,109.167 237.833,109.167 238.5,110.5 Z"/></g>
<g><path style="opacity:0.004" fill="#000000" d="M 363.5,114.5 C 364.833,115.167 364.833,115.167 363.5,114.5 Z"/></g>
<g><path style="opacity:0.004" fill="#000000" d="M 478.5,120.5 C 479.833,121.167 479.833,121.167 478.5,120.5 Z"/></g>
<g><path style="opacity:0.004" fill="#000000" d="M 102.5,122.5 C 103.833,123.167 103.833,123.167 102.5,122.5 Z"/></g>
<g><path style="opacity:1" fill="#57b7d6" d="M 283.5,126.5 C 280.493,126.635 277.993,125.635 276,123.5C 273.377,124.289 271.544,125.955 270.5,128.5C 273.313,131.144 276.646,132.644 280.5,133C 281.596,136.315 283.929,137.982 287.5,138C 288.337,139.011 288.67,140.178 288.5,141.5C 286.876,141.36 285.71,142.027 285,143.5C 282.16,140.629 279.826,140.963 278,144.5C 277.329,143.748 276.496,143.414 275.5,143.5C 277.316,141.863 279.316,140.363 281.5,139C 270.953,132.283 260.287,125.783 249.5,119.5C 238.728,126.618 227.728,133.285 216.5,139.5C 217.234,138.292 217.567,136.959 217.5,135.5C 218.5,135.5 219.5,135.5 220.5,135.5C 220.343,134.127 220.51,132.793 221,131.5C 221.308,132.308 221.808,132.975 222.5,133.5C 225.402,130.882 228.736,129.049 232.5,128C 232.167,127.667 231.833,127.333 231.5,127C 232.5,126.667 233.5,126.333 234.5,126C 234.167,125.667 233.833,125.333 233.5,125C 235.473,124.505 237.473,124.338 239.5,124.5C 238.865,120.538 240.198,119.205 243.5,120.5C 245.147,119.722 246.48,118.556 247.5,117C 245.833,116.667 244.167,116.333 242.5,116C 241.167,115.333 241.167,114.667 242.5,114C 245.033,113.148 247.033,113.814 248.5,116C 249.793,116.49 251.127,116.657 252.5,116.5C 252.5,117.5 252.5,118.5 252.5,119.5C 253.5,119.5 254.5,119.5 255.5,119.5C 253.983,116.413 253.316,113.079 253.5,109.5C 248.217,110.395 242.883,111.395 237.5,112.5C 237.833,111.833 238.167,111.167 238.5,110.5C 242.161,108.757 245.995,107.423 250,106.5C 251.888,106.796 253.722,107.296 255.5,108C 265.138,113.814 274.471,119.981 283.5,126.5 Z"/></g>
<g><path style="opacity:0.004" fill="#000000" d="M 464.5,123.5 C 465.833,124.167 465.833,124.167 464.5,123.5 Z"/></g>
<g><path style="opacity:0.004" fill="#0000ff" d="M 159.5,133.5 C 160.833,134.167 160.833,134.167 159.5,133.5 Z"/></g>
<g><path style="opacity:1" fill="#55c0e6" d="M 216.5,139.5 C 215.395,140.6 214.062,141.267 212.5,141.5C 211.883,141.611 211.383,141.944 211,142.5C 210.173,156.006 210.34,169.34 211.5,182.5C 211.917,185.343 212.917,188.01 214.5,190.5C 215.192,189.975 215.692,189.308 216,188.5C 217.046,190.09 218.213,191.59 219.5,193C 215.604,196.635 211.437,197.135 207,194.5C 205.403,195.885 203.57,196.551 201.5,196.5C 201.5,197.5 201.5,198.5 201.5,199.5C 200.5,199.5 199.5,199.5 198.5,199.5C 198.5,200.5 198.5,201.5 198.5,202.5C 194.01,203.097 191.01,201.431 189.5,197.5C 192.649,197.789 195.649,197.289 198.5,196C 198.957,195.586 199.291,195.086 199.5,194.5C 197.922,193.702 196.256,193.202 194.5,193C 197.827,192.166 200.827,190.666 203.5,188.5C 201.938,185.026 201.105,181.36 201,177.5C 200.333,165.833 200.333,154.167 201,142.5C 201.311,140.444 201.811,138.444 202.5,136.5C 207.095,134.45 210.762,131.45 213.5,127.5C 221.137,122.01 229.137,117.01 237.5,112.5C 242.883,111.395 248.217,110.395 253.5,109.5C 253.316,113.079 253.983,116.413 255.5,119.5C 254.5,119.5 253.5,119.5 252.5,119.5C 252.5,118.5 252.5,117.5 252.5,116.5C 251.127,116.657 249.793,116.49 248.5,116C 247.033,113.814 245.033,113.148 242.5,114C 241.167,114.667 241.167,115.333 242.5,116C 244.167,116.333 245.833,116.667 247.5,117C 246.48,118.556 245.147,119.722 243.5,120.5C 240.198,119.205 238.865,120.538 239.5,124.5C 237.473,124.338 235.473,124.505 233.5,125C 233.833,125.333 234.167,125.667 234.5,126C 233.5,126.333 232.5,126.667 231.5,127C 231.833,127.333 232.167,127.667 232.5,128C 228.736,129.049 225.402,130.882 222.5,133.5C 221.808,132.975 221.308,132.308 221,131.5C 220.51,132.793 220.343,134.127 220.5,135.5C 219.5,135.5 218.5,135.5 217.5,135.5C 217.567,136.959 217.234,138.292 216.5,139.5 Z"/></g>
<g><path style="opacity:0.004" fill="#000000" d="M 117.5,142.5 C 118.833,143.167 118.833,143.167 117.5,142.5 Z"/></g>
<g><path style="opacity:0.004" fill="#000000" d="M 383.5,143.5 C 384.833,144.167 384.833,144.167 383.5,143.5 Z"/></g>
<g><path style="opacity:0.004" fill="#000000" d="M 59.5,146.5 C 60.8333,147.167 60.8333,147.167 59.5,146.5 Z"/></g>
<g><path style="opacity:1" fill="#53bee4" d="M 283.5,126.5 C 290.64,128.813 296.14,133.146 300,139.5C 300.333,155.833 300.667,172.167 301,188.5C 303.988,190.399 306.821,192.399 309.5,194.5C 310.684,196.762 312.35,198.595 314.5,200C 314.333,200.5 314.167,201 314,201.5C 311.626,203.77 308.793,205.103 305.5,205.5C 300.563,203.363 295.896,200.696 291.5,197.5C 283.153,202.19 274.819,206.857 266.5,211.5C 264.565,210.85 262.565,210.517 260.5,210.5C 260.5,211.833 260.5,213.167 260.5,214.5C 258.473,214.338 256.473,214.505 254.5,215C 253.167,216 253.167,217 254.5,218C 252.5,218.667 250.5,218.667 248.5,218C 247.289,216.887 247.289,215.72 248.5,214.5C 245.167,213.833 241.833,213.167 238.5,212.5C 238.167,211.833 237.833,211.167 237.5,210.5C 240.753,209.402 244.086,208.736 247.5,208.5C 248.264,194.191 248.764,179.858 249,165.5C 249.333,166.167 249.667,166.833 250,167.5C 252.899,164.683 254.733,161.516 255.5,158C 256.872,157.598 258.205,157.098 259.5,156.5C 260.192,157.025 260.692,157.692 261,158.5C 263.041,157.577 265.208,157.244 267.5,157.5C 267.5,156.5 267.5,155.5 267.5,154.5C 266.127,154.657 264.793,154.49 263.5,154C 266.127,152.69 268.46,151.023 270.5,149C 274.459,149.209 276.126,147.375 275.5,143.5C 276.496,143.414 277.329,143.748 278,144.5C 279.826,140.963 282.16,140.629 285,143.5C 285.71,142.027 286.876,141.36 288.5,141.5C 288.67,140.178 288.337,139.011 287.5,138C 283.929,137.982 281.596,136.315 280.5,133C 276.646,132.644 273.313,131.144 270.5,128.5C 271.544,125.955 273.377,124.289 276,123.5C 277.993,125.635 280.493,126.635 283.5,126.5 Z"/></g>
<g><path style="opacity:0.004" fill="#000000" d="M 29.5,159.5 C 30.8333,160.167 30.8333,160.167 29.5,159.5 Z"/></g>
<g><path style="opacity:0.133" fill="#4b8e9e" d="M 212.5,141.5 C 211.535,155.118 211.202,168.784 211.5,182.5C 210.34,169.34 210.173,156.006 211,142.5C 211.383,141.944 211.883,141.611 212.5,141.5 Z"/></g>
<g><path style="opacity:0.004" fill="#000000" d="M 95.5,160.5 C 96.8333,161.167 96.8333,161.167 95.5,160.5 Z"/></g>
<g><path style="opacity:0.004" fill="#000000" d="M 62.5,163.5 C 63.8333,164.167 63.8333,164.167 62.5,163.5 Z"/></g>
<g><path style="opacity:0.004" fill="#000000" d="M 309.5,171.5 C 310.833,172.167 310.833,172.167 309.5,171.5 Z"/></g>
<g><path style="opacity:0.004" fill="#000000" d="M 403.5,176.5 C 404.833,177.167 404.833,177.167 403.5,176.5 Z"/></g>
<g><path style="opacity:0.004" fill="#000000" d="M 345.5,185.5 C 346.833,186.167 346.833,186.167 345.5,185.5 Z"/></g>
<g><path style="opacity:0.004" fill="#000000" d="M 63.5,186.5 C 64.8333,187.167 64.8333,187.167 63.5,186.5 Z"/></g>
<g><path style="opacity:0.004" fill="#000000" d="M 336.5,188.5 C 337.833,189.167 337.833,189.167 336.5,188.5 Z"/></g>
<g><path style="opacity:0.004" fill="#000000" d="M 11.5,189.5 C 12.8333,190.167 12.8333,190.167 11.5,189.5 Z"/></g>
<g><path style="opacity:0.004" fill="#000000" d="M 160.5,207.5 C 161.833,208.167 161.833,208.167 160.5,207.5 Z"/></g>
<g><path style="opacity:1" fill="#57b7d7" d="M 309.5,194.5 C 320.944,201.059 332.277,207.893 343.5,215C 348.179,217.533 350.345,221.367 350,226.5C 343.426,232.872 335.926,237.872 327.5,241.5C 327.231,239.571 327.731,237.905 329,236.5C 330.978,237.816 332.478,237.316 333.5,235C 334.793,234.51 336.127,234.343 337.5,234.5C 337.238,233.022 337.571,231.689 338.5,230.5C 339.609,231.59 340.609,231.59 341.5,230.5C 339.363,228.764 338.696,226.764 339.5,224.5C 339.167,224.167 338.833,223.833 338.5,223.5C 336.358,225.905 333.691,227.238 330.5,227.5C 330.034,229.201 330.034,230.701 330.5,232C 328.048,232.29 325.715,232.956 323.5,234C 318.791,237.391 314.125,240.725 309.5,244C 306.883,244.822 304.216,245.322 301.5,245.5C 312.157,238.503 322.824,231.503 333.5,224.5C 324.091,218.14 314.758,211.807 305.5,205.5C 308.793,205.103 311.626,203.77 314,201.5C 314.167,201 314.333,200.5 314.5,200C 312.35,198.595 310.684,196.762 309.5,194.5 Z"/></g>
<g><path style="opacity:0.004" fill="#000000" d="M 384.5,218.5 C 385.833,219.167 385.833,219.167 384.5,218.5 Z"/></g>
<g><path style="opacity:0.004" fill="#000000" d="M 3.5,226.5 C 4.83333,227.167 4.83333,227.167 3.5,226.5 Z"/></g>
<g><path style="opacity:1" fill="#55b8da" d="M 213.5,127.5 C 210.762,131.45 207.095,134.45 202.5,136.5C 201.811,138.444 201.311,140.444 201,142.5C 200.333,154.167 200.333,165.833 201,177.5C 201.105,181.36 201.938,185.026 203.5,188.5C 200.827,190.666 197.827,192.166 194.5,193C 196.256,193.202 197.922,193.702 199.5,194.5C 199.291,195.086 198.957,195.586 198.5,196C 195.649,197.289 192.649,197.789 189.5,197.5C 191.01,201.431 194.01,203.097 198.5,202.5C 198.5,201.5 198.5,200.5 198.5,199.5C 199.5,199.5 200.5,199.5 201.5,199.5C 201.5,198.5 201.5,197.5 201.5,196.5C 203.57,196.551 205.403,195.885 207,194.5C 211.437,197.135 215.604,196.635 219.5,193C 218.213,191.59 217.046,190.09 216,188.5C 215.692,189.308 215.192,189.975 214.5,190.5C 212.917,188.01 211.917,185.343 211.5,182.5C 221.599,191.384 232.766,199.05 245,205.5C 246.166,191.568 247,177.568 247.5,163.5C 248.64,161.527 249.973,159.693 251.5,158C 259.38,152.897 267.38,148.063 275.5,143.5C 276.126,147.375 274.459,149.209 270.5,149C 268.46,151.023 266.127,152.69 263.5,154C 264.793,154.49 266.127,154.657 267.5,154.5C 267.5,155.5 267.5,156.5 267.5,157.5C 265.208,157.244 263.041,157.577 261,158.5C 260.692,157.692 260.192,157.025 259.5,156.5C 258.205,157.098 256.872,157.598 255.5,158C 254.733,161.516 252.899,164.683 250,167.5C 249.667,166.833 249.333,166.167 249,165.5C 248.764,179.858 248.264,194.191 247.5,208.5C 244.086,208.736 240.753,209.402 237.5,210.5C 237.833,211.167 238.167,211.833 238.5,212.5C 241.833,213.167 245.167,213.833 248.5,214.5C 247.289,215.72 247.289,216.887 248.5,218C 250.5,218.667 252.5,218.667 254.5,218C 253.167,217 253.167,216 254.5,215C 256.473,214.505 258.473,214.338 260.5,214.5C 260.5,213.167 260.5,211.833 260.5,210.5C 262.565,210.517 264.565,210.85 266.5,211.5C 260.798,217.689 253.798,220.522 245.5,220C 234.002,212.417 222.335,205.083 210.5,198C 209.167,197.333 207.833,197.333 206.5,198C 193.012,206.913 179.345,215.58 165.5,224C 176.989,231.333 188.322,238.833 199.5,246.5C 196.525,246.287 193.858,245.287 191.5,243.5C 189.092,244.216 187.092,245.549 185.5,247.5C 186.609,249.214 185.942,249.881 183.5,249.5C 183.5,250.5 183.5,251.5 183.5,252.5C 180.833,252.5 178.167,252.5 175.5,252.5C 175.528,250.418 174.861,248.584 173.5,247C 170.843,246.825 168.176,246.992 165.5,247.5C 167.429,245.852 169.429,244.185 171.5,242.5C 164.87,238.18 158.203,233.847 151.5,229.5C 147.272,224.444 147.938,219.944 153.5,216C 168.734,207.133 183.567,197.633 198,187.5C 198.333,171.5 198.667,155.5 199,139.5C 201.985,133.259 206.818,129.259 213.5,127.5 Z"/></g>
<g><path style="opacity:0.004" fill="#000000" d="M 136.5,231.5 C 137.833,232.167 137.833,232.167 136.5,231.5 Z"/></g>
<g><path style="opacity:1" fill="#59b8d8" d="M 256.5,236.5 C 257.72,238.282 258.386,240.282 258.5,242.5C 254.365,243.561 250.198,244.561 246,245.5C 244.862,245.011 243.695,244.678 242.5,244.5C 236.021,242.004 236.021,239.171 242.5,236C 247.326,232.545 251.992,232.711 256.5,236.5 Z"/></g>
<g><path style="opacity:0.004" fill="#000000" d="M 157.5,241.5 C 158.833,242.167 158.833,242.167 157.5,241.5 Z"/></g>
<g><path style="opacity:1" fill="#4e90a3" d="M 256.5,236.5 C 258.723,237.114 260.389,238.448 261.5,240.5C 258.384,243.232 255.051,245.732 251.5,248C 247.832,248.498 244.832,247.331 242.5,244.5C 243.695,244.678 244.862,245.011 246,245.5C 250.198,244.561 254.365,243.561 258.5,242.5C 258.386,240.282 257.72,238.282 256.5,236.5 Z"/></g>
<g><path style="opacity:1" fill="#55c0e6" d="M 199.5,246.5 C 206.506,250 213.173,254 219.5,258.5C 218.527,260.25 217.193,261.75 215.5,263C 215.833,263.333 216.167,263.667 216.5,264C 211.868,265.072 207.201,266.072 202.5,267C 200.968,267.7 199.968,268.866 199.5,270.5C 196.543,271.507 193.876,272.841 191.5,274.5C 191.5,275.5 191.5,276.5 191.5,277.5C 185.97,281.097 180.304,284.43 174.5,287.5C 173.033,287.894 171.533,288.227 170,288.5C 167.152,286.357 164.318,286.191 161.5,288C 166.598,290.234 166.598,291.401 161.5,291.5C 162.167,292.5 162.833,293.5 163.5,294.5C 160.924,295.883 161.258,296.717 164.5,297C 161.237,297.869 160.904,299.203 163.5,301C 160.776,302.335 158.11,302.502 155.5,301.5C 155.5,299.833 155.5,298.167 155.5,296.5C 153.738,296.643 152.071,296.309 150.5,295.5C 149.501,283.852 149.168,272.186 149.5,260.5C 149.933,257.805 151.266,255.638 153.5,254C 157.175,251.14 161.175,248.973 165.5,247.5C 168.176,246.992 170.843,246.825 173.5,247C 174.861,248.584 175.528,250.418 175.5,252.5C 178.167,252.5 180.833,252.5 183.5,252.5C 183.5,251.5 183.5,250.5 183.5,249.5C 185.942,249.881 186.609,249.214 185.5,247.5C 187.092,245.549 189.092,244.216 191.5,243.5C 193.858,245.287 196.525,246.287 199.5,246.5 Z"/></g>
<g><path style="opacity:1" fill="#54bfe5" d="M 327.5,241.5 C 329.146,243.812 331.146,245.812 333.5,247.5C 333.511,249.017 334.177,250.184 335.5,251C 345.019,252.914 348.186,258.414 345,267.5C 344.667,267.167 344.333,266.833 344,266.5C 342.99,273.653 342.157,280.82 341.5,288C 341.888,289.951 342.888,291.451 344.5,292.5C 344.933,284.022 346.099,275.689 348,267.5C 348.646,278.183 348.479,288.85 347.5,299.5C 344.881,299.232 342.381,299.565 340,300.5C 337.775,297.8 336.275,294.8 335.5,291.5C 334.167,291.5 332.833,291.5 331.5,291.5C 317.427,283.045 303.26,274.712 289,266.5C 279.876,271.976 270.71,277.309 261.5,282.5C 260.402,283.601 260.235,284.934 261,286.5C 262.745,287.956 264.578,289.289 266.5,290.5C 265.724,292.356 264.391,293.689 262.5,294.5C 265.507,295.834 268.341,295.501 271,293.5C 273.411,294.624 275.578,296.124 277.5,298C 275.693,298.928 274.026,300.094 272.5,301.5C 271.167,300.167 269.833,298.833 268.5,297.5C 266.591,298.348 264.591,298.682 262.5,298.5C 258.148,296.465 253.814,294.465 249.5,292.5C 246.381,293.559 243.381,294.893 240.5,296.5C 239.127,296.657 237.793,296.49 236.5,296C 235.221,294.354 233.555,293.187 231.5,292.5C 233.766,291.686 236.1,291.186 238.5,291C 238.043,290.586 237.709,290.086 237.5,289.5C 239.894,286.495 239.894,283.661 237.5,281C 239.067,278.432 241.233,276.598 244,275.5C 245.473,277.046 247.306,278.046 249.5,278.5C 252.987,278.599 254.987,276.933 255.5,273.5C 270.579,263.756 285.912,254.423 301.5,245.5C 304.216,245.322 306.883,244.822 309.5,244C 314.125,240.725 318.791,237.391 323.5,234C 325.715,232.956 328.048,232.29 330.5,232C 330.034,230.701 330.034,229.201 330.5,227.5C 333.691,227.238 336.358,225.905 338.5,223.5C 338.833,223.833 339.167,224.167 339.5,224.5C 338.696,226.764 339.363,228.764 341.5,230.5C 340.609,231.59 339.609,231.59 338.5,230.5C 337.571,231.689 337.238,233.022 337.5,234.5C 336.127,234.343 334.793,234.51 333.5,235C 332.478,237.316 330.978,237.816 329,236.5C 327.731,237.905 327.231,239.571 327.5,241.5 Z"/></g>
<g><path style="opacity:0.004" fill="#000000" d="M 72.5,263.5 C 73.8333,264.167 73.8333,264.167 72.5,263.5 Z"/></g>
<g><path style="opacity:0.004" fill="#000000" d="M 391.5,274.5 C 392.833,275.167 392.833,275.167 391.5,274.5 Z"/></g>
<g><path style="opacity:0.004" fill="#000000" d="M 14.5,290.5 C 15.8333,291.167 15.8333,291.167 14.5,290.5 Z"/></g>
<g><path style="opacity:1" fill="#56b9db" d="M 219.5,258.5 C 228.618,263.779 237.618,269.279 246.5,275C 249.772,275.788 252.772,275.288 255.5,273.5C 254.987,276.933 252.987,278.599 249.5,278.5C 247.306,278.046 245.473,277.046 244,275.5C 241.233,276.598 239.067,278.432 237.5,281C 239.894,283.661 239.894,286.495 237.5,289.5C 237.709,290.086 238.043,290.586 238.5,291C 236.1,291.186 233.766,291.686 231.5,292.5C 233.555,293.187 235.221,294.354 236.5,296C 237.793,296.49 239.127,296.657 240.5,296.5C 226.341,305.804 212.008,314.97 197.5,324C 190.868,325.011 185.202,323.178 180.5,318.5C 180.611,317.883 180.944,317.383 181.5,317C 178.204,315.53 175.537,313.363 173.5,310.5C 169.369,310.275 166.035,308.608 163.5,305.5C 165.432,304.683 167.432,303.349 169.5,301.5C 170.167,301.667 170.833,301.833 171.5,302C 170.167,302.667 170.167,303.333 171.5,304C 169.405,304.556 169.238,305.056 171,305.5C 172.892,305.223 174.225,304.223 175,302.5C 175.671,303.252 176.504,303.586 177.5,303.5C 183.021,305.845 188.188,308.845 193,312.5C 207.667,303.167 222.333,293.833 237,284.5C 237.617,283.551 237.451,282.718 236.5,282C 227.929,276.579 219.262,271.412 210.5,266.5C 203.934,269.725 197.601,273.392 191.5,277.5C 191.5,276.5 191.5,275.5 191.5,274.5C 193.876,272.841 196.543,271.507 199.5,270.5C 199.968,268.866 200.968,267.7 202.5,267C 207.201,266.072 211.868,265.072 216.5,264C 216.167,263.667 215.833,263.333 215.5,263C 217.193,261.75 218.527,260.25 219.5,258.5 Z"/></g>
<g><path style="opacity:1" fill="#52a7c3" d="M 149.5,260.5 C 149.168,272.186 149.501,283.852 150.5,295.5C 152.071,296.309 153.738,296.643 155.5,296.5C 155.5,298.167 155.5,299.833 155.5,301.5C 158.11,302.502 160.776,302.335 163.5,301C 160.904,299.203 161.237,297.869 164.5,297C 161.258,296.717 160.924,295.883 163.5,294.5C 162.833,293.5 162.167,292.5 161.5,291.5C 166.598,291.401 166.598,290.234 161.5,288C 164.318,286.191 167.152,286.357 170,288.5C 171.533,288.227 173.033,287.894 174.5,287.5C 171.349,289.583 168.349,291.916 165.5,294.5C 169.53,297.509 173.53,300.509 177.5,303.5C 176.504,303.586 175.671,303.252 175,302.5C 174.225,304.223 172.892,305.223 171,305.5C 169.238,305.056 169.405,304.556 171.5,304C 170.167,303.333 170.167,302.667 171.5,302C 170.833,301.833 170.167,301.667 169.5,301.5C 167.432,303.349 165.432,304.683 163.5,305.5C 166.035,308.608 169.369,310.275 173.5,310.5C 175.537,313.363 178.204,315.53 181.5,317C 180.944,317.383 180.611,317.883 180.5,318.5C 170.072,312.905 160.072,306.571 150.5,299.5C 150,298.5 149.5,297.5 149,296.5C 148.174,284.326 148.34,272.326 149.5,260.5 Z"/></g>
<g><path style="opacity:1" fill="#56b7d8" d="M 333.5,247.5 C 340.822,249.571 346.322,253.905 350,260.5C 350.667,272.5 350.667,284.5 350,296.5C 348.559,299.609 346.392,302.109 343.5,304C 332.567,310.271 321.901,316.938 311.5,324C 308.5,324.667 305.5,324.667 302.5,324C 288.599,316.226 275.265,307.726 262.5,298.5C 264.591,298.682 266.591,298.348 268.5,297.5C 269.833,298.833 271.167,300.167 272.5,301.5C 274.026,300.094 275.693,298.928 277.5,298C 275.578,296.124 273.411,294.624 271,293.5C 268.341,295.501 265.507,295.834 262.5,294.5C 264.391,293.689 265.724,292.356 266.5,290.5C 264.578,289.289 262.745,287.956 261,286.5C 260.235,284.934 260.402,283.601 261.5,282.5C 261.511,284.017 262.177,285.184 263.5,286C 278.156,294.234 292.322,303.068 306,312.5C 315.584,306.625 325.084,300.625 334.5,294.5C 333.66,293.265 332.66,292.265 331.5,291.5C 332.833,291.5 334.167,291.5 335.5,291.5C 336.275,294.8 337.775,297.8 340,300.5C 342.381,299.565 344.881,299.232 347.5,299.5C 348.479,288.85 348.646,278.183 348,267.5C 346.099,275.689 344.933,284.022 344.5,292.5C 342.888,291.451 341.888,289.951 341.5,288C 342.157,280.82 342.99,273.653 344,266.5C 344.333,266.833 344.667,267.167 345,267.5C 348.186,258.414 345.019,252.914 335.5,251C 334.177,250.184 333.511,249.017 333.5,247.5 Z"/></g>
<g><path style="opacity:0.004" fill="#000000" d="M 82.5,316.5 C 83.8333,317.167 83.8333,317.167 82.5,316.5 Z"/></g>
<g><path style="opacity:0.004" fill="#000000" d="M 19.5,329.5 C 20.8333,330.167 20.8333,330.167 19.5,329.5 Z"/></g>
<g><path style="opacity:0.004" fill="#000000" d="M 164.5,332.5 C 165.833,333.167 165.833,333.167 164.5,332.5 Z"/></g>
<g><path style="opacity:0.004" fill="#000000" d="M 240.5,333.5 C 241.833,334.167 241.833,334.167 240.5,333.5 Z"/></g>
<g><path style="opacity:0.004" fill="#000000" d="M 271.5,345.5 C 272.833,346.167 272.833,346.167 271.5,345.5 Z"/></g>
<g><path style="opacity:0.004" fill="#000000" d="M 307.5,354.5 C 308.833,355.167 308.833,355.167 307.5,354.5 Z"/></g>
<g><path style="opacity:0.004" fill="#000000" d="M 288.5,359.5 C 289.833,360.167 289.833,360.167 288.5,359.5 Z"/></g>
<g><path style="opacity:0.004" fill="#000000" d="M 401.5,363.5 C 402.833,364.167 402.833,364.167 401.5,363.5 Z"/></g>
<g><path style="opacity:0.004" fill="#000000" d="M 78.5,370.5 C 79.8333,371.167 79.8333,371.167 78.5,370.5 Z"/></g>
<g><path style="opacity:0.004" fill="#000000" d="M 135.5,372.5 C 136.833,373.167 136.833,373.167 135.5,372.5 Z"/></g>
<g><path style="opacity:0.004" fill="#000000" d="M 47.5,386.5 C 48.8333,387.167 48.8333,387.167 47.5,386.5 Z"/></g>
<g><path style="opacity:0.004" fill="#000000" d="M 277.5,389.5 C 278.833,390.167 278.833,390.167 277.5,389.5 Z"/></g>
<g><path style="opacity:0.004" fill="#000000" d="M 336.5,389.5 C 337.833,390.167 337.833,390.167 336.5,389.5 Z"/></g>
<g><path style="opacity:0.004" fill="#000000" d="M 89.5,399.5 C 90.8333,400.167 90.8333,400.167 89.5,399.5 Z"/></g>
<g><path style="opacity:0.004" fill="#000000" d="M 263.5,401.5 C 264.833,402.167 264.833,402.167 263.5,401.5 Z"/></g>
<g><path style="opacity:0.004" fill="#000000" d="M 244.5,403.5 C 245.833,404.167 245.833,404.167 244.5,403.5 Z"/></g>
<g><path style="opacity:0.004" fill="#000000" d="M 249.5,410.5 C 250.833,411.167 250.833,411.167 249.5,410.5 Z"/></g>
<g><path style="opacity:0.004" fill="#000000" d="M 135.5,422.5 C 136.833,423.167 136.833,423.167 135.5,422.5 Z"/></g>
<g><path style="opacity:0.004" fill="#000000" d="M 51.5,433.5 C 52.8333,434.167 52.8333,434.167 51.5,433.5 Z"/></g>
<g><path style="opacity:0.004" fill="#000000" d="M 417.5,445.5 C 418.833,446.167 418.833,446.167 417.5,445.5 Z"/></g>
<g><path style="opacity:0.004" fill="#000000" d="M 121.5,467.5 C 122.833,468.167 122.833,468.167 121.5,467.5 Z"/></g>
<g><path style="opacity:0.004" fill="#000000" d="M 88.5,468.5 C 89.8333,469.167 89.8333,469.167 88.5,468.5 Z"/></g>
<g><path style="opacity:0.004" fill="#000000" d="M 354.5,470.5 C 355.833,471.167 355.833,471.167 354.5,470.5 Z"/></g>
<g><path style="opacity:0.004" fill="#000000" d="M 329.5,484.5 C 330.833,485.167 330.833,485.167 329.5,484.5 Z"/></g>
<g><path style="opacity:0.004" fill="#000000" d="M 414.5,491.5 C 415.833,492.167 415.833,492.167 414.5,491.5 Z"/></g>
<g><path style="opacity:0.004" fill="#000000" d="M 233.5,494.5 C 234.833,495.167 234.833,495.167 233.5,494.5 Z"/></g>
</svg>
